<svg xmlns="http://www.w3.org/2000/svg" xmlns:xlink="http://www.w3.org/1999/xlink" version="1.1" x="0px" y="0px" viewBox="0 0 100 125" style="enable-background:new 0 0 100 100;" xml:space="preserve"><g><path d="M8.4,49.9c0.8,0,1.2,0.3,1.8,0.8c0.7,0.6,1.5,1.4,3.1,1.4c1.6,0,2.4-0.8,3.1-1.4c0.6-0.5,0.9-0.8,1.8-0.8   c0.8,0,1.2,0.3,1.8,0.8c0.7,0.6,1.5,1.4,3.1,1.4s2.4-0.8,3.1-1.4c0.6-0.5,0.9-0.8,1.8-0.8c0.8,0,1.2,0.3,1.8,0.8   c0.7,0.6,1.5,1.4,3.1,1.4c1.6,0,2.4-0.8,3.1-1.4c0.6-0.5,0.9-0.8,1.8-0.8c0.8,0,1.2,0.3,1.8,0.8c0.7,0.6,1.5,1.4,3.1,1.4   c1.6,0,2.4-0.8,3.1-1.4c0.6-0.5,0.9-0.8,1.8-0.8c0.8,0,1.2,0.3,1.8,0.8c0.7,0.6,1.5,1.4,3.1,1.4c1.6,0,2.4-0.8,3.1-1.4   c0.6-0.5,0.9-0.8,1.8-0.8s1.2,0.3,1.8,0.8c0.7,0.6,1.5,1.4,3.1,1.4s2.4-0.8,3.1-1.4c0.6-0.5,0.9-0.8,1.8-0.8c0.8,0,1.2,0.3,1.8,0.8   c0.7,0.6,1.5,1.4,3.1,1.4s2.4-0.8,3.1-1.4c0.6-0.5,0.9-0.8,1.8-0.8c0.8,0,1.2,0.3,1.8,0.8c0.7,0.6,1.5,1.4,3.1,1.4   c1.6,0,2.4-0.8,3.1-1.4c0.6-0.5,0.9-0.8,1.8-0.8s1.2,0.3,1.8,0.8c0.7,0.6,1.5,1.4,3.1,1.4c0.6,0,1-0.4,1-1s-0.4-1-1-1   c-0.8,0-1.2-0.3-1.8-0.8c-0.7-0.6-1.5-1.4-3.1-1.4s-2.4,0.8-3.1,1.4c-0.6,0.5-0.9,0.8-1.8,0.8c-0.8,0-1.2-0.3-1.8-0.8   c-0.7-0.6-1.5-1.4-3.1-1.4c-1.6,0-2.4,0.8-3.1,1.4c-0.6,0.5-0.9,0.8-1.8,0.8s-1.2-0.3-1.8-0.8c-0.7-0.6-1.5-1.4-3.1-1.4   c-1.6,0-2.4,0.8-3.1,1.4c-0.6,0.5-0.9,0.8-1.8,0.8s-1.2-0.3-1.8-0.8c-0.7-0.6-1.5-1.4-3.1-1.4s-2.4,0.8-3.1,1.4   c-0.6,0.5-0.9,0.8-1.8,0.8c-0.8,0-1.2-0.3-1.8-0.8c-0.7-0.6-1.5-1.4-3.1-1.4c-1.6,0-2.4,0.8-3.1,1.4c-0.6,0.5-0.9,0.8-1.8,0.8   c-0.8,0-1.2-0.3-1.8-0.8c-0.7-0.6-1.5-1.4-3.1-1.4c-1.6,0-2.4,0.8-3.1,1.4c-0.6,0.5-0.9,0.8-1.8,0.8c-0.8,0-1.2-0.3-1.8-0.8   c-0.7-0.6-1.5-1.4-3.1-1.4c-1.6,0-2.4,0.8-3.1,1.4c-0.6,0.5-0.9,0.8-1.8,0.8c-0.8,0-1.2-0.3-1.8-0.8c-0.7-0.6-1.5-1.4-3.1-1.4   c-1.6,0-2.4,0.8-3.1,1.4c-0.6,0.5-0.9,0.8-1.8,0.8s-1.2-0.3-1.8-0.8c-0.7-0.6-1.5-1.4-3.1-1.4c-0.6,0-1,0.4-1,1S7.8,49.9,8.4,49.9z   "/></g></svg>